<?xml version="1.0" encoding="utf-8"?>
<!-- Generator: Adobe Illustrator 19.2.1, SVG Export Plug-In . SVG Version: 6.00 Build 0)  -->
<svg version="1.1" id="Layer_1" xmlns="http://www.w3.org/2000/svg" xmlns:xlink="http://www.w3.org/1999/xlink" x="0px" y="0px"
	 viewBox="0 0 120 70" style="enable-background:new 0 0 120 70;" xml:space="preserve">
<style type="text/css">
	.st0{fill:#FFFFFF;}
</style>
<g>
	<path class="st0" d="M5.8,5c0-0.9,0.1-1.2-0.6-1.5C4.6,3.1,4,3.1,3,2.9l0,0c-0.1,0-0.1-0.4,0-0.4h20.7c8.6,0,12.6,2,12.6,7.8
		c0,4.3-2.2,6.1-4.7,6.9c-0.1,0-0.1,0.1,0,0.1c3.8,1,5.8,3.5,5.8,7.6c0,5.6-3.8,9.2-12.9,9.2H3c-0.1,0-0.1-0.4,0-0.4l0,0
		c1-0.2,1.6-0.2,2.2-0.6c0.6-0.4,0.6-0.7,0.6-1.6L5.8,5 M15.9,27.4c0,0.4,0,0.8,0,0.8s0.4-0.1,0.7-0.1h4c3.3,0,5.8-1,5.8-3.9
		c0-3.9-3.4-3.9-6.2-3.9h-3.5c-0.4,0-0.7,0-0.7,0s0.1,0.3,0.1,0.7v6.4 M15.9,14.7c0,0.4-0.1,0.7-0.1,0.7s0.4,0,0.8,0h4.3
		c3.7,0,4.9-1.7,4.9-3.5c0-2.9-1.9-3.4-5-3.4h-4.2c-0.4,0-0.8-0.1-0.8-0.1s0.1,0.3,0.1,0.8L15.9,14.7 M114.2,5c0-0.9,0-1.2,0.6-1.5
		c0.6-0.4,1.2-0.4,2.2-0.6l0,0c0.1,0,0.1-0.4,0-0.4h-15.9c-0.1,0-0.1,0.4,0,0.4l0,0c1,0.1,1.5,0.2,2.1,0.6s0.6,0.7,0.6,1.5v16
		c0,3.6-2.1,6.4-6.2,6.4s-6.2-2.8-6.2-6.4V5c0-0.9,0-1.2,0.6-1.5c0.6-0.4,1.1-0.5,2.1-0.6l0,0c0.1,0,0.1-0.4,0-0.4h-15
		c-0.1,0-0.1,0.4,0,0.4l0,0c0.5,0,0.9,0.1,1.2,0.4c0.5,0.4,0.6,0.9,0.6,1.8v15.7c0,7.6,4.1,14,16.7,14s16.7-6.4,16.7-14L114.2,5
		L114.2,5z M66.1,34.2c0.1,0,0.1-0.4,0-0.4l0,0c-1-0.2-1.6-0.2-2.2-0.6c-0.6-0.4-0.6-0.7-0.6-1.6V21.5l11-16.3
		c0.6-0.9,1-1.4,1.5-1.8c0.1-0.1,0.3-0.2,0.4-0.3c0.5-0.2,0.6-0.3,1.2-0.3l0,0c0.1,0,0.1-0.4,0-0.4H62.6c-0.1,0-0.1,0.4,0,0.4l0,0
		c0.7,0,1.6,0,1.5,1.1c-0.1,1-4.3,7.2-5.9,9.5c-0.2,0.3-0.4,0.7-0.5,1.1c-0.1-0.4-0.3-0.8-0.5-1.1c-2.1-3.2-5.7-8.3-5.8-9.5
		c-0.1-1.1,0.7-1,1.5-1l0,0c0.1,0,0.1-0.4,0-0.4H37.4c-0.1,0-0.1,0.4,0,0.4l0,0c0.7,0.1,1,0,1.8,0.4c0.1,0,0.3,0.2,0.4,0.3
		C40.1,4,40.4,4.3,41,5.2l11,16.2v10.2c0,0.9,0.1,1.2-0.6,1.6c-0.6,0.4-1.2,0.4-2.2,0.6l0,0c-0.1,0-0.1,0.4,0,0.4H66.1z M26.5,49.5
		c5.9,0,9,4.6,9,9.3c0,5.8-2.8,8.6-8.8,8.6c-1.6,0-2.3-0.2-2.9-0.8c-0.4-0.4-0.7-2-0.7-5.9v-4.6c0-4.5,0.3-5.8,0.5-6.1
		C23.9,49.8,24.6,49.5,26.5,49.5 M35.2,65.4c1.8-1.9,2.9-4.5,2.9-7.2c0-5.6-4.5-9.7-10.6-9.7c-1.4,0-4.2,0.1-5.4,0.1
		c-1.1,0-2.5-0.1-3.9-0.1c-0.1,0-0.1,0.4,0,0.4c1.2,0.1,1.7,0.3,2.1,0.5s0.6,0.7,0.6,6.8v4.5c0,6.1-0.2,6.6-0.6,6.8
		s-0.9,0.4-2.1,0.5c-0.2,0-0.1,0.4,0,0.4c1.4,0,2.8-0.1,3.9-0.1s3.3,0.1,4.7,0.1C30.7,68.5,33,67.5,35.2,65.4 M54.3,59.7h-5.4
		l2.7-7.4L54.3,59.7z M62.1,68.5c0.1,0,0.1-0.4,0-0.4c-0.9-0.1-1.3-0.2-1.8-0.5c-0.4-0.3-0.8-0.7-3.2-6.8l-1.7-4.5
		c-1.1-2.8-1.9-5-2.8-7.7c-0.1-0.2-1-0.2-1,0c-0.8,2.4-1.8,5.1-2.7,7.7l-1.6,4.5c-2.2,6.1-2.8,6.5-3.1,6.7c-0.5,0.3-1,0.5-1.9,0.6
		c-0.2,0-0.1,0.4,0,0.4h6.3c0.1,0,0.1-0.4,0-0.4c-1.3-0.1-1.8-0.4-1.8-0.9c0-0.7,0.3-2.2,1.8-6.1H55c1.8,4.4,2.1,5.8,2.1,6.3
		s-0.6,0.6-1.5,0.7c-0.1,0-0.1,0.4,0,0.4H62.1z M88.3,68.5c0.1,0,0.1-0.4,0-0.4c-1.2-0.1-1.7-0.3-2.1-0.5s-0.6-0.7-0.6-6.8v-4.5
		c0-6.1,0.3-6.6,0.6-6.8c0.4-0.2,0.9-0.4,2.1-0.5c0.1,0,0.1-0.4,0-0.4h-7.8c-0.1,0-0.1,0.4,0,0.4c1.2,0.1,1.7,0.3,2.1,0.5
		s0.6,0.7,0.6,6.8v1.4H71.7v-1.4c0-6.1,0.3-6.6,0.6-6.8c0.4-0.2,0.9-0.4,2.1-0.5c0.2,0,0.2-0.4,0.1-0.4h-7.8c-0.1,0-0.1,0.4,0,0.4
		c1.2,0.1,1.7,0.3,2.1,0.5s0.6,0.7,0.6,6.8v4.5c0,6.1-0.2,6.6-0.6,6.8s-0.9,0.4-2.1,0.5c-0.1,0-0.1,0.4,0,0.4h7.8
		c0.1,0,0.1-0.4-0.1-0.4c-1.2-0.1-1.7-0.3-2.1-0.5s-0.6-0.7-0.6-6.8v-1.9h11.6v1.9c0,6.1-0.3,6.6-0.6,6.8c-0.4,0.2-0.9,0.4-2.1,0.5
		c-0.2,0-0.2,0.4,0,0.4H88.3z M104.6,49.5c4.9,0,8.1,4.6,8.1,9.7c0,4-1.8,8.4-7.3,8.4c-4.9,0-8.1-4.6-8.1-9.6
		C97.3,53.9,99.1,49.5,104.6,49.5 M104.8,68.6c6.3,0,10.5-5.1,10.5-10.4c0-5.6-4.2-9.9-10-9.9c-6.3,0-10.5,5.1-10.5,10.4
		C94.8,64.3,98.9,68.6,104.8,68.6 M3,41.1c-0.1,0-0.3,0.1-0.3,0.3c0,0.1,0.1,0.3,0.3,0.3h110.6c0.1,0,0.3-0.1,0.3-0.3
		c0-0.1-0.1-0.3-0.3-0.3H3z M11.2,68.5c0.1,0,0.1-0.4,0-0.4c-1.2-0.1-2-0.3-2.3-0.5c-0.4-0.2-0.7-0.7-0.7-6.8v-4.5
		c0-6.1,0.3-6.6,0.7-6.8s1.1-0.4,2.3-0.5c0.2,0,0.1-0.4,0-0.4H2.9c-0.1,0-0.1,0.4,0,0.4c1.2,0.1,2,0.3,2.4,0.5
		C5.7,49.6,6,50.2,6,56.2v4.5c0,6.1-0.3,6.6-0.6,6.8C5,67.7,4.2,67.9,3,68c-0.1,0-0.1,0.4,0,0.4L11.2,68.5L11.2,68.5z"/>
</g>
</svg>
